<svg width="800" height="600" xmlns="http://www.w3.org/2000/svg">
 <g>
  <title>Layer 1</title>
  <text fill="#845335" stroke-width="0" x="127.02786" y="118.99437" id="svg_2" font-size="50" font-family="'Besley'" text-anchor="start" xml:space="preserve" stroke="#000" transform="matrix(7.85134 0 0 6.38238 -934.893 -462.823)">s</text>
  <text fill="#E6C36A" stroke-width="0" x="303.49514" y="229.16557" id="svg_3" font-size="50" font-family="'Besley'" text-anchor="start" xml:space="preserve" stroke="#000" transform="matrix(5.17977 0 0 3.95777 -1473.79 -498.016)">Q</text>
  <text fill="#845335" stroke-width="0" x="350.0438" y="115.45938" id="svg_4" font-size="50" font-family="'Besley'" text-anchor="start" xml:space="preserve" stroke="#000" transform="matrix(1.7859 0 0 2.00983 -260.334 8.64387)" font-weight="bold">S.Qobil</text>
  <text fill="#E6C36A" stroke-width="0" x="357.7566" y="192.61814" id="svg_5" font-size="50" font-family="'Besley'" text-anchor="start" xml:space="preserve" stroke="#000" transform="matrix(2.17739 0 0 3.34722 -423.79 -216.693)" font-weight="bold">Mebel</text>
  <path fill="#E6C36A" stroke="#000" stroke-width="0" d="m268.25698,393.01091l0.38197,0l0.11803,-0.54067l0.11803,0.54067l0.38197,0l-0.30902,0.33415l0.11804,0.54067l-0.30902,-0.33416l-0.30902,0.33416l0.11804,-0.54067l-0.30902,-0.33415z" id="svg_6"/>
  <rect fill="#845335" stroke-width="0" x="327.64377" y="146.78426" width="14" height="286.99999" id="svg_7" stroke="#000"/>
 </g>

</svg>